# xmcd
#
# Track frame offsets: 
#        182
#        13957
#        27252
#        43692
#        59757
#        77230
#        91225
#        103935
#        123942
#        140222
#
# Disc length: 2120 seconds
#
# Revision: 6
# Processed by: cddbd v1.5.2PL0 Copyright (c) Steve Scherf et al.
# Submitted via: ExactAudioCopy v1.2
#
DISCID=8f08460a
DTITLE=Anne Murray - My Christmas Favorites
DYEAR=1995
DGENRE=Christmas
TTITLE0=The Christmas Song
TTITLE1=Winter Wonderland
TTITLE2=I'll Be Home For Christmas
TTITLE3=We Three Kings
TTITLE4=The Little Drummer Boy
TTITLE5=White Christmas
TTITLE6=Do You Hear What I Hear ?
TTITLE7=O Come All Ye Faithful
TTITLE8=It Came Upon A Midnight Clear
TTITLE9=Silent Night
EXTD=
EXTT0=
EXTT1=
EXTT2=
EXTT3=
EXTT4=
EXTT5=
EXTT6=
EXTT7=
EXTT8=
EXTT9=
PLAYORDER=
